Coordinates
version=1
nRows=16
nColumns=40
inDegrees=yes

Units are S.I. units (second, meters, Newtons, ...)
If the header above contains a line with 'inDegrees', this indicates whether rotational values are in degrees (yes) or radians (no).

endheader
time	pelvis_tilt	pelvis_list	pelvis_rotation	pelvis_tx	pelvis_ty	pelvis_tz	hip_flexion_r	hip_adduction_r	hip_rotation_r	knee_angle_r	knee_angle_r_beta	ankle_angle_r	subtalar_angle_r	mtp_angle_r	hip_flexion_l	hip_adduction_l	hip_rotation_l	knee_angle_l	knee_angle_l_beta	ankle_angle_l	subtalar_angle_l	mtp_angle_l	lumbar_extension	lumbar_bending	lumbar_rotation	arm_flex_r	arm_add_r	arm_rot_r	elbow_flex_r	pro_sup_r	wrist_flex_r	wrist_dev_r	arm_flex_l	arm_add_l	arm_rot_l	elbow_flex_l	pro_sup_l	wrist_flex_l	wrist_dev_l
      4.06500000	    -10.24803131	      1.91447260	      0.60171895	     -0.21659671	      1.43284301	     -0.90021219	     13.28378586	    -13.53218230	     -8.80783292	     11.48218234	      0.20040189	    -30.28439569	      0.00000000	      0.00000000	     16.51408773	    -11.96582754	    -12.82368513	     16.94097384	      0.29567577	    -27.24584692	      0.00000000	      0.00000000	     -4.25612886	     -7.27884590	      3.17325583	    -24.20445435	    -29.81095472	      9.47062059	     75.60937304	     44.99969415	      0.00000000	      0.00000000	    -22.80882893	    -41.70287306	     -0.82226827	     75.17707195	     44.99969415	      0.00000000	      0.00000000
      4.07000000	    -10.28849077	      1.91785881	      0.59612922	     -0.21621173	      1.42932559	     -0.90002482	     13.25290363	    -13.53335802	     -8.79799580	     11.50608590	      0.20081908	    -30.25432912	      0.00000000	      0.00000000	     16.49596545	    -11.97111435	    -12.81023714	     16.96246131	      0.29605080	    -27.22812899	      0.00000000	      0.00000000	     -4.25464126	     -7.27846787	      3.17297207	    -24.20186530	    -29.80990551	      9.46983757	     75.60953447	     44.99969428	      0.00000000	      0.00000000	    -22.80654439	    -41.70079236	     -0.82211915	     75.17704473	     44.99969428	      0.00000000	      0.00000000
      4.07500000	    -10.12632288	      1.83756938	      0.64306892	     -0.21613640	      1.42575502	     -0.89982245	     13.01733238	    -13.45249369	     -8.65165300	     11.58404315	      0.20217969	    -30.26463041	      0.00000000	      0.00000000	     16.52807178	    -12.11451705	    -13.10267840	     17.40021696	      0.30369108	    -28.04250336	      0.00000000	      0.00000000	     -4.12369468	     -7.28484467	      3.16765954	    -24.18071319	    -29.81296651	      9.50578962	     75.67013906	     44.99969798	      0.00000000	      0.00000000	    -22.80940008	    -41.69277808	     -0.80456990	     75.17627075	     44.99969798	      0.00000000	      0.00000000
      4.08000000	    -10.04682160	      1.86554335	      0.63542381	     -0.21601977	      1.42187705	     -0.89963859	     12.90435900	    -13.48141361	     -8.50184608	     11.67100560	      0.20369747	    -30.30058139	      0.00000000	      0.00000000	     16.47356883	    -12.10572591	    -12.93225232	     17.64600354	      0.30798086	    -28.21911131	      0.00000000	      0.00000000	     -4.09326626	     -7.28944900	      3.17020343	    -24.17559879	    -29.81227029	      9.50927893	     75.67740724	     44.99969853	      0.00000000	      0.00000000	    -22.80907744	    -41.68886435	     -0.80235054	     75.17615507	     44.99969853	      0.00000000	      0.00000000
      4.08500000	    -10.07042217	      1.79200880	      0.68847620	     -0.21602989	      1.41762568	     -0.89943172	     12.87617410	    -13.40160557	     -8.36491757	     11.71802001	      0.20451803	    -30.41749732	      0.00000000	      0.00000000	     16.62760743	    -12.21468172	    -12.92070523	     17.95279841	      0.31333544	    -28.63824061	      0.00000000	      0.00000000	     -4.04352947	     -7.31363643	      3.17173655	    -24.15903731	    -29.81441954	      9.53319774	     75.71792536	     44.99970100	      0.00000000	      0.00000000	    -22.81037068	    -41.68323361	     -0.79072512	     75.17563451	     44.99970100	      0.00000000	      0.00000000
      4.09000000	    -10.09445254	      1.79362439	      0.68379727	     -0.21580804	      1.41315371	     -0.89927537	     12.84412249	    -13.40105118	     -8.35128690	     11.74333118	      0.20495979	    -30.38694607	      0.00000000	      0.00000000	     16.61881403	    -12.21527599	    -12.90428394	     17.97338349	      0.31369472	    -28.61750546	      0.00000000	      0.00000000	     -4.04188959	     -7.31297151	      3.17160315	    -24.15632058	    -29.81331523	      9.53242866	     75.71813660	     44.99970114	      0.00000000	      0.00000000	    -22.80801086	    -41.68103619	     -0.79055044	     75.17560535	     44.99970114	      0.00000000	      0.00000000
      4.09500000	     -9.93533613	      1.82444199	      0.73636233	     -0.21594464	      1.40860141	     -0.89911301	     12.66360795	    -13.44461590	     -8.10214874	     11.88697015	      0.20746677	    -30.46713849	      0.00000000	      0.00000000	     16.56106780	    -12.19265787	    -12.61930193	     18.29554237	      0.31931745	    -28.88635736	      0.00000000	      0.00000000	     -3.99476196	     -7.32299011	      3.17706988	    -24.15191931	    -29.81264540	      9.53576194	     75.72505948	     44.99970166	      0.00000000	      0.00000000	    -22.80894911	    -41.67657915	     -0.78848066	     75.17549360	     44.99970166	      0.00000000	      0.00000000
      4.10000000	     -9.98020651	      1.72419092	      0.83225835	     -0.21605537	      1.40360583	     -0.89903786	     12.64659396	    -13.35339164	     -8.08206690	     11.90656381	      0.20780874	    -30.68582073	      0.00000000	      0.00000000	     16.76380884	    -12.29735546	    -12.49205108	     18.56415467	      0.32400562	    -29.50308534	      0.00000000	      0.00000000	     -3.95135202	     -7.36161768	      3.18668868	    -24.13819183	    -29.81488392	      9.55670887	     75.75986106	     44.99970378	      0.00000000	      0.00000000	    -22.81248213	    -41.67086879	     -0.77898193	     75.17504471	     44.99970378	      0.00000000	      0.00000000
      4.10500000	     -9.91251599	      1.73357423	      0.82296370	     -0.21608836	      1.39849281	     -0.89885453	     12.56066015	    -13.36485213	     -7.95619008	     11.97960599	      0.20908357	    -30.74022460	      0.00000000	      0.00000000	     16.72858599	    -12.28168256	    -12.30870924	     18.69903076	      0.32635965	    -29.56173626	      0.00000000	      0.00000000	     -3.92071831	     -7.36021206	      3.19201581	    -24.13349961	    -29.81432948	      9.56136430	     75.76855011	     44.99970442	      0.00000000	      0.00000000	    -22.81280552	    -41.66794072	     -0.77653570	     75.17490970	     44.99970442	      0.00000000	      0.00000000
      4.11000000	     -9.92219941	      1.73136719	      0.81336992	     -0.21598982	      1.39304924	     -0.89869413	     12.53570706	    -13.35967114	     -7.94834035	     12.00278568	      0.20948813	    -30.71001916	      0.00000000	      0.00000000	     16.72689782	    -12.27727178	    -12.29430199	     18.71450323	      0.32662970	    -29.53354396	      0.00000000	      0.00000000	     -3.91924206	     -7.35967670	      3.19192121	    -24.13068427	    -29.81318080	      9.56054714	     75.76873657	     44.99970455	      0.00000000	      0.00000000	    -22.81036198	    -41.66568964	     -0.77637054	     75.17487982	     44.99970455	      0.00000000	      0.00000000
      4.11500000	     -9.82711869	      1.75312139	      0.85345651	     -0.21614387	      1.38751251	     -0.89860513	     12.43120853	    -13.40468508	     -7.83840448	     12.08908057	      0.21099426	    -30.84075010	      0.00000000	      0.00000000	     16.71960066	    -12.24365300	    -12.05873065	     18.93806742	      0.33053163	    -29.69377343	      0.00000000	      0.00000000	     -3.87750761	     -7.37005601	      3.20240470	    -24.12517346	    -29.81279329	      9.56439327	     75.77681459	     44.99970513	      0.00000000	      0.00000000	    -22.81254279	    -41.66171258	     -0.77429428	     75.17475711	     44.99970513	      0.00000000	      0.00000000
      4.12000000	     -9.83201888	      1.75425908	      0.84448328	     -0.21607430	      1.38157413	     -0.89839046	     12.40504644	    -13.39688689	     -7.83333436	     12.11211035	      0.21139621	    -30.80866951	      0.00000000	      0.00000000	     16.72597609	    -12.24202065	    -12.04501030	     18.95057982	      0.33075001	    -29.66219438	      0.00000000	      0.00000000	     -3.87622565	     -7.37002181	      3.20235363	    -24.12230033	    -29.81163171	      9.56351946	     75.77696163	     44.99970527	      0.00000000	      0.00000000	    -22.81007055	    -41.65941559	     -0.77414557	     75.17472729	     44.99970527	      0.00000000	      0.00000000
      4.12500000	     -9.91270286	      1.65466245	      1.12770062	     -0.21631244	      1.37535218	     -0.89865304	     12.35852792	    -13.36387937	     -8.15498800	     11.99702163	      0.20938753	    -31.58719497	      0.00000000	      0.00000000	     17.01443395	    -12.24543204	    -11.49682230	     19.20022472	      0.33510714	    -29.75455886	      0.00000000	      0.00000000	     -3.67847553	     -7.44472946	      3.26768132	    -24.10665784	    -29.81717494	      9.60287383	     75.84083825	     44.99970903	      0.00000000	      0.00000000	    -22.83977918	    -41.65796821	     -0.75946104	     75.17392195	     44.99970903	      0.00000000	      0.00000000
      4.13000000	     -9.90073496	      1.65122818	      1.10725773	     -0.21638738	      1.36896744	     -0.89849865	     12.33861642	    -13.35911315	     -8.15327773	     12.01699920	      0.20973620	    -31.54708755	      0.00000000	      0.00000000	     17.02411517	    -12.24013842	    -11.48374028	     19.21186370	      0.33531028	    -29.72078302	      0.00000000	      0.00000000	     -3.67736927	     -7.44381355	      3.26750821	    -24.10385948	    -29.81597178	      9.60202503	     75.84097498	     44.99970917	      0.00000000	      0.00000000	    -22.83722589	    -41.65568118	     -0.75930206	     75.17389113	     44.99970917	      0.00000000	      0.00000000
      4.13500000	     -9.88429890	      1.64743190	      1.08691055	     -0.21649961	      1.36236747	     -0.89835197	     12.32936789	    -13.36206330	     -8.15530599	     12.03311255	      0.21001743	    -31.50648353	      0.00000000	      0.00000000	     17.02914538	    -12.24124021	    -11.46658999	     19.22587665	      0.33555485	    -29.68795629	      0.00000000	      0.00000000	     -3.67579526	     -7.44308368	      3.26760467	    -24.10101131	    -29.81477073	      9.60117719	     75.84114028	     44.99970931	      0.00000000	      0.00000000	    -22.83475904	    -41.65332952	     -0.75913963	     75.17385986	     44.99970931	      0.00000000	      0.00000000
      4.14000000	     -9.91247635	      1.67942941	      1.18410624	     -0.21685580	      1.35544063	     -0.89845342	     12.34398336	    -13.44323122	     -8.37132654	     12.00801529	      0.20957940	    -31.85344523	      0.00000000	      0.00000000	     17.17747604	    -12.14198277	    -11.07057499	     19.42935154	      0.33910616	    -29.64427998	      0.00000000	      0.00000000	     -3.59430949	     -7.45670542	      3.32172184	    -24.09408487	    -29.81709708	      9.61385410	     75.86351066	     44.99971073	      0.00000000	      0.00000000	    -22.85424332	    -41.64577675	     -0.75421496	     75.17355520	     44.99971073	      0.00000000	      0.00000000
